<svg width="229" height="60" viewBox="0 0 229 60" fill="none" xmlns="http://www.w3.org/2000/svg">
<g clip-path="url(#clip0_7586_18373)">
<path d="M77.1441 13.7803H91.2467V17.4037H78.1866V23.5949H89.7698V27.2183H78.1866V36.4337H74.1325V16.7475C75.3198 15.6063 75.9858 14.9501 77.1441 13.7803Z" fill="#FDFCFC"/>
<path d="M92.9552 27.9886V27.9315C92.9552 23.0528 96.8935 19.0014 102.222 19.0014C107.579 19.0014 111.459 22.9672 111.459 27.8745V27.9315C111.459 32.7532 107.521 36.8331 102.164 36.8331C96.8646 36.8331 92.9552 32.8388 92.9552 27.9886ZM107.463 27.9886V27.9315C107.463 24.9358 105.262 22.4251 102.135 22.4251C98.9495 22.4251 96.9225 24.8788 96.9225 27.8745V27.9315C96.9225 30.8987 99.1522 33.4094 102.222 33.4094C105.465 33.4094 107.463 30.9273 107.463 27.9886Z" fill="#FDFCFC"/>
<path d="M113.718 27.9886V27.9315C113.718 23.0528 117.656 19.0014 122.985 19.0014C128.342 19.0014 132.222 22.9672 132.222 27.8745V27.9315C132.222 32.7532 128.284 36.8331 122.927 36.8331C117.627 36.8331 113.718 32.8388 113.718 27.9886ZM128.226 27.9886V27.9315C128.226 24.9358 126.025 22.4251 122.898 22.4251C119.712 22.4251 117.685 24.8788 117.685 27.8745V27.9315C117.685 30.8987 119.915 33.4094 122.985 33.4094C126.228 33.4094 128.226 30.9273 128.226 27.9886Z" fill="#FDFCFC"/>
<path d="M134.539 27.9315V27.8745C134.539 22.1683 138.448 19.0014 142.589 19.0014C145.427 19.0014 147.28 20.3994 148.497 21.9971V12.8103H152.464V36.4337H148.497V33.5806C147.223 35.378 145.369 36.8046 142.589 36.8046C138.506 36.8046 134.539 33.6377 134.539 27.9315ZM148.555 27.9315V27.8745C148.555 24.5649 146.18 22.3966 143.545 22.3966C140.823 22.3966 138.564 24.5078 138.564 27.8745V27.9315C138.564 31.2411 140.823 33.4094 143.545 33.4094C146.209 33.4094 148.555 31.2126 148.555 27.9315Z" fill="#FDFCFC"/>
<path d="M165.119 25.1926V25.107C165.119 18.6591 170.013 13.3809 176.933 13.3809C181.19 13.3809 183.768 14.836 185.968 16.9187L183.362 19.8574C181.48 18.174 179.569 17.0613 176.905 17.0613C172.561 17.0613 169.346 20.5991 169.346 25.0214V25.107C169.346 29.5292 172.532 33.1241 176.933 33.1241C179.713 33.1241 181.567 32.0114 183.536 30.214L186.142 32.8103C183.797 35.2924 181.074 36.8331 176.818 36.8331C170.128 36.8331 165.119 31.6976 165.119 25.1926Z" fill="#FDFCFC"/>
<path d="M190.023 13.01H194.279V16.719H190.023V13.01ZM190.138 19.3723H194.135V36.4622H190.138V19.3723Z" fill="#FDFCFC"/>
<path d="M200.158 31.7261V22.7104H197.957V19.3723H200.158V14.6648H204.154V19.3438H208.816V22.7104H204.154V31.0984C204.154 32.6106 204.936 33.2382 206.297 33.2382C207.137 33.2382 207.977 33.0385 208.758 32.6676V35.8631C207.745 36.4051 206.731 36.7475 205.168 36.7475C202.243 36.719 200.158 35.4636 200.158 31.7261Z" fill="#FDFCFC"/>
<path d="M229 19.3723L222.108 36.8901C220.689 40.4279 219.183 41.7118 216.403 41.7118H213.015V38.5164H215.969C217.127 38.5164 217.764 37.9172 218.43 36.4622L211.191 19.3438H215.448L220.313 32.0399L224.83 19.3438H229V19.3723Z" fill="#FDFCFC"/>
<path d="M86.4107 54.6362L86.8451 54.0656C87.7718 54.7789 88.7853 55.1212 89.8857 55.1212C91.5942 55.1212 92.8394 54.1512 92.8394 52.2397V51.1555C92.1734 52.0685 91.1888 52.8673 89.683 52.8673C87.8586 52.8673 86.0632 51.4979 86.0632 49.3581V49.3295C86.0632 47.1612 87.8586 45.7917 89.683 45.7917C91.2178 45.7917 92.2023 46.5906 92.8394 47.4465V45.9629H93.5634V52.2682C93.5634 53.3523 93.2159 54.2083 92.6077 54.8074C91.9707 55.4636 90.9861 55.806 89.8567 55.806C88.5826 55.7775 87.4532 55.4066 86.4107 54.6362ZM92.8973 49.3581V49.3295C92.8973 47.6177 91.3625 46.505 89.7699 46.505C88.1772 46.505 86.8451 47.5891 86.8451 49.3295V49.3581C86.8451 51.0414 88.2061 52.2111 89.7699 52.2111C91.3625 52.1826 92.8973 51.0414 92.8973 49.3581Z" fill="#FDFCFC"/>
<path d="M96.3433 45.9629H97.0673V48.0742C97.6754 46.7332 98.9206 45.7917 100.426 45.8488V46.6476H100.34C98.602 46.6476 97.0673 47.96 97.0673 50.3852V53.4379H96.3433V45.9629Z" fill="#FDFCFC"/>
<path d="M101.353 49.729V49.7004C101.353 47.6177 103.004 45.7917 105.262 45.7917C107.492 45.7917 109.143 47.5606 109.143 49.6719V49.7004C109.143 51.7832 107.492 53.6091 105.233 53.6091C103.004 53.6091 101.353 51.8117 101.353 49.729ZM108.361 49.729V49.7004C108.361 47.903 107 46.4765 105.262 46.4765C103.467 46.4765 102.193 47.9315 102.193 49.6719V49.7004C102.193 51.4979 103.554 52.9244 105.291 52.9244C107.058 52.9244 108.361 51.4693 108.361 49.729Z" fill="#FDFCFC"/>
<path d="M110.851 49.729V49.7004C110.851 47.6177 112.531 45.7917 114.703 45.7917C116.122 45.7917 117.019 46.4194 117.714 47.1612L117.193 47.6747C116.527 47.0185 115.803 46.4479 114.674 46.4479C112.965 46.4479 111.633 47.8459 111.633 49.6434V49.6719C111.633 51.4693 113.023 52.8959 114.732 52.8959C115.803 52.8959 116.643 52.3538 117.28 51.6405L117.772 52.0685C116.99 52.9244 116.064 53.5521 114.703 53.5521C112.531 53.6091 110.851 51.8117 110.851 49.729Z" fill="#FDFCFC"/>
<path d="M119.075 49.729V49.7004C119.075 47.6177 120.726 45.7917 122.985 45.7917C125.214 45.7917 126.865 47.5606 126.865 49.6719V49.7004C126.865 51.7832 125.214 53.6091 122.956 53.6091C120.726 53.6091 119.075 51.8117 119.075 49.729ZM126.083 49.729V49.7004C126.083 47.903 124.722 46.4765 122.985 46.4765C121.189 46.4765 119.915 47.9315 119.915 49.6719V49.7004C119.915 51.4979 121.276 52.9244 123.014 52.9244C124.78 52.9244 126.083 51.4693 126.083 49.729Z" fill="#FDFCFC"/>
<path d="M129.095 45.9629H129.819V47.3038C130.282 46.5335 130.977 45.7917 132.338 45.7917C133.67 45.7917 134.452 46.5335 134.886 47.3894C135.379 46.562 136.219 45.7917 137.609 45.7917C139.404 45.7917 140.504 47.0471 140.504 48.9016V53.4094H139.78V48.9872C139.78 47.3609 138.941 46.4479 137.551 46.4479C136.276 46.4479 135.176 47.3894 135.176 49.0727V53.4094H134.452V48.9301C134.452 47.3609 133.612 46.4194 132.251 46.4194C130.89 46.4194 129.848 47.5892 129.848 49.1013V53.3809H129.124V45.9629H129.095Z" fill="#FDFCFC"/>
<path d="M143.111 45.9629H143.834V47.6177C144.472 46.6476 145.456 45.7632 146.933 45.7632C148.757 45.7632 150.611 47.2182 150.611 49.6434V49.6719C150.611 52.0685 148.757 53.5806 146.933 53.5806C145.427 53.5806 144.472 52.7247 143.834 51.8117V55.7489H143.111V45.9629ZM149.858 49.7289V49.7004C149.858 47.7318 148.497 46.4765 146.904 46.4765C145.311 46.4765 143.806 47.7889 143.806 49.6719V49.7004C143.806 51.612 145.311 52.8959 146.904 52.8959C148.555 52.9244 149.858 51.6976 149.858 49.7289Z" fill="#FDFCFC"/>
<path d="M153.738 42.7675H153.014V53.4379H153.738V42.7675Z" fill="#FDFCFC"/>
<path d="M156.084 49.7004V49.6719C156.084 47.5321 157.618 45.7917 159.675 45.7917C161.788 45.7917 163.149 47.475 163.149 49.7004C163.149 49.8431 163.149 49.8716 163.121 49.9857H156.837C156.952 51.8402 158.342 52.9244 159.79 52.9244C160.978 52.9244 161.759 52.4108 162.397 51.7546L162.889 52.1826C162.107 53.01 161.209 53.5806 159.761 53.5806C157.792 53.6091 156.084 52.0399 156.084 49.7004ZM162.339 49.3581C162.223 47.8459 161.354 46.4765 159.617 46.4765C158.111 46.4765 156.952 47.7318 156.837 49.3581H162.339Z" fill="#FDFCFC"/>
<path d="M167.638 49.1298L170.215 45.9629H171.084L168.101 49.6148L171.2 53.4094H170.302L167.638 50.0999L164.974 53.4094H164.105L167.175 49.6148L164.221 45.9629H165.119L167.638 49.1298Z" fill="#FDFCFC"/>
<path d="M79.316 43.1384H80.0689L84.9049 53.4379H84.0651L82.733 50.5849H76.6229L75.2908 53.4379H74.48L79.316 43.1384ZM82.4145 49.8716L79.6925 43.9658L76.9414 49.8716H82.4145Z" fill="#FDFCFC"/>
<path d="M56.2365 13.8659H35.155L34.0546 12.7817L31.5642 10.3281L31.5063 10.271L34.0546 7.76033L40.3964 1.51212C41.6416 1.91154 42.8289 2.4251 43.9872 2.96718L36.545 10.2996H41.7575L47.2884 4.8502C48.302 5.50641 49.2576 6.21968 50.1842 6.99L46.8251 10.2996H53.5723C54.5279 11.4408 55.4256 12.6105 56.2365 13.8659Z" fill="#FDFCFC"/>
<path d="M37.0952 0.627675L22.1818 15.321H20.6181H17.1142H17.0273V11.7832V2.96719C18.1856 2.39658 19.4019 1.91156 20.6181 1.51213V11.8688L24.2958 8.24536V0.542083C25.4831 0.285307 26.6993 0.114123 27.8866 0.0285307V4.70756L32.6646 0C34.1705 0.114123 35.6473 0.313837 37.0952 0.627675Z" fill="#FDFCFC"/>
<path d="M14.0736 4.62198V25.3923L12.9732 26.4765L10.4828 28.9301L10.4249 28.9872L7.87657 26.4765L1.56372 20.2283C1.96913 19.0014 2.49038 17.8317 3.04058 16.6905L10.4828 24.0228V18.8873L4.95181 13.438C5.61784 12.4394 6.34179 11.4979 7.12366 10.5849L10.4828 13.8944V7.2468C11.6122 6.27676 12.7994 5.39231 14.0736 4.62198Z" fill="#FDFCFC"/>
<path d="M0.637076 23.4522L15.5505 38.1455V39.6862V43.1384V43.224H11.9597H3.01163C2.43247 42.0827 1.94019 40.8845 1.53478 39.6862H12.0465L8.36887 36.0628H0.550202C0.28958 34.893 0.14479 33.7233 0.028958 32.525H4.77807L0 27.8174C0.115832 26.3338 0.318538 24.8787 0.637076 23.4522Z" fill="#FDFCFC"/>
<path d="M4.69119 46.1341H25.7726L26.873 47.2183L29.3634 49.6719L29.4213 49.729L26.873 52.2397L20.5312 58.4879C19.286 58.0884 18.0988 57.5749 16.9404 57.0328L24.3826 49.7004H19.1702L13.6392 55.1498C12.6257 54.4936 11.6701 53.7803 10.7434 53.01L14.1025 49.7004H7.35533C6.37076 48.5592 5.47306 47.3894 4.69119 46.1341Z" fill="#FDFCFC"/>
<path d="M23.8035 59.3723L38.7169 44.679H40.2806H43.7845H43.8714V48.2168V57.0328C42.7131 57.6034 41.4968 58.0884 40.2806 58.4879V48.1312L36.6029 51.7546V59.4579C35.4157 59.7147 34.2284 59.8573 33.0121 59.9715V55.2924L28.2341 60C26.7283 59.9144 25.2514 59.6861 23.8035 59.3723Z" fill="#FDFCFC"/>
<path d="M46.8251 55.4066V34.6362L47.9255 33.5521L50.4159 31.0984L50.4738 31.0414L53.0221 33.5521L59.3639 39.8003C58.9585 41.0271 58.4373 42.1969 57.8871 43.3381L50.4449 36.0057V41.1412L55.9758 46.5906C55.3098 47.5892 54.5859 48.5307 53.804 49.4437L50.4449 46.1341V52.7818C49.2865 53.7233 48.0993 54.6077 46.8251 55.4066Z" fill="#FDFCFC"/>
<path d="M60.2616 36.5478L45.3483 21.8545V20.3138V16.8616V16.776H48.9391H57.8871C58.4662 17.9173 58.9585 19.1155 59.3639 20.3138H48.8522L52.5299 23.9372H60.3485C60.6091 25.107 60.7539 26.2767 60.8698 27.475H56.1206L60.8987 32.1826C60.8118 33.6662 60.5802 35.1213 60.2616 36.5478Z" fill="#FDFCFC"/>
</g>
<defs>
<clipPath id="clip0_7586_18373">
<rect width="229" height="60" fill="white"/>
</clipPath>
</defs>
</svg>
