<svg width="177" height="46" viewBox="0 0 177 46" fill="none" xmlns="http://www.w3.org/2000/svg">
<g clip-path="url(#clip0_5931_12517)">
<path d="M59.6267 10.5649H70.5269V13.3428H60.4325V18.0894H69.3854V20.8673H60.4325V27.9325H57.299V12.8398C58.2166 11.9648 58.7314 11.4617 59.6267 10.5649Z" fill="#013632"/>
<path d="M71.8475 21.4579V21.4142C71.8475 17.6738 74.8915 14.5678 79.0099 14.5678C83.1506 14.5678 86.1499 17.6082 86.1499 21.3704V21.4142C86.1499 25.1108 83.1058 28.2387 78.9651 28.2387C74.8691 28.2387 71.8475 25.1764 71.8475 21.4579ZM83.0611 21.4579V21.4142C83.0611 19.1175 81.36 17.1926 78.9427 17.1926C76.4807 17.1926 74.9139 19.0737 74.9139 21.3704V21.4142C74.9139 23.689 76.6373 25.6139 79.0099 25.6139C81.5167 25.6139 83.0611 23.7109 83.0611 21.4579Z" fill="#013632"/>
<path d="M87.8957 21.4579V21.4142C87.8957 17.6738 90.9397 14.5678 95.0581 14.5678C99.1988 14.5678 102.198 17.6082 102.198 21.3704V21.4142C102.198 25.1108 99.154 28.2387 95.0133 28.2387C90.9173 28.2387 87.8957 25.1764 87.8957 21.4579ZM99.1093 21.4579V21.4142C99.1093 19.1175 97.4082 17.1926 94.9909 17.1926C92.5288 17.1926 90.9621 19.0737 90.9621 21.3704V21.4142C90.9621 23.689 92.6855 25.6139 95.0581 25.6139C97.5649 25.6139 99.1093 23.7109 99.1093 21.4579Z" fill="#013632"/>
<path d="M103.989 21.4142V21.3704C103.989 16.9957 107.01 14.5678 110.211 14.5678C112.404 14.5678 113.837 15.6396 114.777 16.8645V9.82121H117.843V27.9325H114.777V25.7451C113.792 27.1232 112.36 28.2168 110.211 28.2168C107.055 28.2168 103.989 25.7889 103.989 21.4142ZM114.822 21.4142V21.3704C114.822 18.8331 112.986 17.1707 110.95 17.1707C108.846 17.1707 107.1 18.7893 107.1 21.3704V21.4142C107.1 23.9515 108.846 25.6139 110.95 25.6139C113.009 25.6139 114.822 23.9296 114.822 21.4142Z" fill="#013632"/>
<path d="M127.624 19.3143V19.2487C127.624 14.3053 131.407 10.2587 136.756 10.2587C140.047 10.2587 142.039 11.3742 143.74 12.971L141.725 15.224C140.271 13.9334 138.793 13.0804 136.734 13.0804C133.377 13.0804 130.892 15.7927 130.892 19.1831V19.2487C130.892 22.6391 133.354 25.3951 136.756 25.3951C138.905 25.3951 140.338 24.5421 141.86 23.1641L143.874 25.1545C142.061 27.0575 139.957 28.2387 136.667 28.2387C131.497 28.2387 127.624 24.3015 127.624 19.3143Z" fill="#013632"/>
<path d="M146.873 9.97432H150.164V12.8179H146.873V9.97432ZM146.963 14.8521H150.052V27.9543H146.963V14.8521Z" fill="#013632"/>
<path d="M154.707 24.3233V17.4113H153.006V14.8521H154.707V11.243H157.796V14.8302H161.4V17.4113H157.796V23.8421C157.796 25.0014 158.4 25.4826 159.452 25.4826C160.101 25.4826 160.75 25.3295 161.355 25.0452V27.495C160.571 27.9106 159.788 28.1731 158.579 28.1731C156.319 28.1512 154.707 27.1888 154.707 24.3233Z" fill="#013632"/>
<path d="M177 14.8521L171.673 28.2825C170.576 30.9948 169.412 31.9791 167.264 31.9791H164.645V29.5292H166.928C167.823 29.5292 168.316 29.0699 168.83 27.9543L163.235 14.8302H166.525L170.285 24.564L173.777 14.8302H177V14.8521Z" fill="#013632"/>
<path d="M66.7891 41.8878L67.1248 41.4503C67.841 41.9971 68.6244 42.2596 69.4749 42.2596C70.7955 42.2596 71.758 41.5159 71.758 40.0504V39.2192C71.2432 39.9192 70.4822 40.5316 69.3183 40.5316C67.9082 40.5316 66.5205 39.4817 66.5205 37.8412V37.8193C66.5205 36.1569 67.9082 35.107 69.3183 35.107C70.5045 35.107 71.2655 35.7194 71.758 36.3757V35.2382H72.3175V40.0723C72.3175 40.9035 72.0489 41.5597 71.5789 42.019C71.0865 42.5221 70.3255 42.7846 69.4526 42.7846C68.4677 42.7627 67.5948 42.4784 66.7891 41.8878ZM71.8027 37.8412V37.8193C71.8027 36.5069 70.6165 35.6538 69.3854 35.6538C68.1544 35.6538 67.1248 36.485 67.1248 37.8193V37.8412C67.1248 39.1317 68.1768 40.0285 69.3854 40.0285C70.6165 40.0067 71.8027 39.1317 71.8027 37.8412Z" fill="#013632"/>
<path d="M74.4662 35.2382H75.0258V36.8569C75.4958 35.8288 76.4583 35.107 77.6222 35.1507V35.7632H77.555C76.2121 35.7632 75.0258 36.7694 75.0258 38.6286V40.9691H74.4662V35.2382Z" fill="#013632"/>
<path d="M78.3384 38.1255V38.1037C78.3384 36.5069 79.6142 35.107 81.36 35.107C83.0834 35.107 84.3592 36.4631 84.3592 38.0818V38.1037C84.3592 39.7004 83.0834 41.1003 81.3376 41.1003C79.6142 41.1003 78.3384 39.7223 78.3384 38.1255ZM83.7549 38.1255V38.1037C83.7549 36.7256 82.7029 35.632 81.36 35.632C79.9723 35.632 78.9875 36.7475 78.9875 38.0818V38.1037C78.9875 39.4817 80.0394 40.5754 81.3824 40.5754C82.7477 40.5754 83.7549 39.4598 83.7549 38.1255Z" fill="#013632"/>
<path d="M85.6798 38.1255V38.1037C85.6798 36.5069 86.978 35.107 88.6567 35.107C89.7534 35.107 90.4473 35.5882 90.9844 36.1569L90.5816 36.5506C90.0668 36.0475 89.5072 35.6101 88.6343 35.6101C87.3137 35.6101 86.2841 36.6819 86.2841 38.0599V38.0818C86.2841 39.4598 87.3585 40.5535 88.6791 40.5535C89.5072 40.5535 90.1563 40.1379 90.6487 39.5911L91.0292 39.9192C90.4249 40.5754 89.7086 41.0566 88.6567 41.0566C86.978 41.1003 85.6798 39.7223 85.6798 38.1255Z" fill="#013632"/>
<path d="M92.0364 38.1255V38.1037C92.0364 36.5069 93.3122 35.107 95.0581 35.107C96.7815 35.107 98.0573 36.4631 98.0573 38.0818V38.1037C98.0573 39.7004 96.7815 41.1003 95.0357 41.1003C93.3122 41.1003 92.0364 39.7223 92.0364 38.1255ZM97.453 38.1255V38.1037C97.453 36.7256 96.401 35.632 95.0581 35.632C93.6704 35.632 92.6855 36.7475 92.6855 38.0818V38.1037C92.6855 39.4817 93.7375 40.5754 95.0804 40.5754C96.4458 40.5754 97.453 39.4598 97.453 38.1255Z" fill="#013632"/>
<path d="M99.7807 35.2382H100.34V36.2663C100.698 35.6757 101.236 35.107 102.288 35.107C103.317 35.107 103.921 35.6757 104.257 36.3319C104.638 35.6976 105.287 35.107 106.361 35.107C107.749 35.107 108.599 36.0694 108.599 37.4912V40.9472H108.04V37.5568C108.04 36.31 107.391 35.6101 106.316 35.6101C105.332 35.6101 104.481 36.3319 104.481 37.6224V40.9472H103.921V37.5131C103.921 36.31 103.272 35.5882 102.22 35.5882C101.168 35.5882 100.363 36.485 100.363 37.6443V40.9253H99.8031V35.2382H99.7807Z" fill="#013632"/>
<path d="M110.614 35.2382H111.173V36.5069C111.666 35.7632 112.427 35.0851 113.568 35.0851C114.978 35.0851 116.411 36.2007 116.411 38.0599V38.0818C116.411 39.9192 114.978 41.0785 113.568 41.0785C112.404 41.0785 111.666 40.4223 111.173 39.7223V42.7408H110.614V35.2382ZM115.829 38.1255V38.1037C115.829 36.5944 114.777 35.632 113.546 35.632C112.315 35.632 111.151 36.6381 111.151 38.0818V38.1037C111.151 39.5692 112.315 40.5535 113.546 40.5535C114.822 40.5754 115.829 39.6348 115.829 38.1255Z" fill="#013632"/>
<path d="M118.828 32.7884H118.269V40.9691H118.828V32.7884Z" fill="#013632"/>
<path d="M120.641 38.1037V38.0818C120.641 36.4413 121.827 35.107 123.417 35.107C125.05 35.107 126.102 36.3975 126.102 38.1037C126.102 38.213 126.102 38.2349 126.08 38.3224H121.223C121.313 39.7442 122.387 40.5754 123.506 40.5754C124.424 40.5754 125.028 40.1816 125.52 39.6786L125.901 40.0067C125.297 40.641 124.603 41.0785 123.484 41.0785C121.962 41.1003 120.641 39.8973 120.641 38.1037ZM125.476 37.8412C125.386 36.6819 124.715 35.632 123.372 35.632C122.208 35.632 121.313 36.5944 121.223 37.8412H125.476Z" fill="#013632"/>
<path d="M129.572 37.6662L131.564 35.2382H132.235L129.93 38.038L132.325 40.9472H131.631L129.572 38.4099L127.513 40.9472H126.841L129.214 38.038L126.931 35.2382H127.624L129.572 37.6662Z" fill="#013632"/>
<path d="M61.3054 33.0728H61.8873L65.6252 40.9691H64.9761L63.9465 38.7817H59.2238L58.1942 40.9691H57.5675L61.3054 33.0728ZM63.7003 38.2349L61.5964 33.7071L59.47 38.2349H63.7003Z" fill="#013632"/>
<path d="M43.4666 10.6305H27.1722L26.3217 9.79934L24.3968 7.91821L24.3521 7.87447L26.3217 5.9496L31.2234 1.1593C32.1859 1.46553 33.1036 1.85925 33.9989 2.27485L28.2466 7.89634H32.2754L36.5505 3.7185C37.3338 4.22159 38.0725 4.76843 38.7887 5.35901L36.1923 7.89634H41.4074C42.1461 8.77128 42.8399 9.66809 43.4666 10.6305Z" fill="#0D9677"/>
<path d="M28.6719 0.481217L17.1449 11.7461H15.9363H13.228H13.1609V9.03376V2.27485C14.0562 1.83738 14.9962 1.46553 15.9363 1.1593V9.09938L18.7788 6.32145V0.415597C19.6965 0.218735 20.6366 0.0874941 21.5543 0.0218735V3.60913L25.2474 0C26.4112 0.0874941 27.5527 0.240609 28.6719 0.481217Z" fill="#0D9677"/>
<path d="M10.8778 3.54351V19.4674L10.0273 20.2986L8.10243 22.1797L8.05766 22.2235L6.08801 20.2986L1.20865 15.5083C1.522 14.5678 1.92489 13.6709 2.35015 12.796L8.10243 18.4175V14.4803L3.82739 10.3024C4.34218 9.53685 4.90174 8.81503 5.50607 8.11507L8.10243 10.6524V5.55587C8.97534 4.81217 9.89302 4.1341 10.8778 3.54351Z" fill="#0D9677"/>
<path d="M0.492413 17.98L12.0193 29.2449V30.4261V33.0728V33.1384H9.24393H2.32777C1.88012 32.2634 1.49962 31.3447 1.18627 30.4261H9.31108L6.46851 27.6481H0.425266C0.223824 26.7513 0.111912 25.8545 0.0223824 24.9358H3.6931L0 21.3267C0.0895296 20.1893 0.246206 19.0737 0.492413 17.98Z" fill="#0D9677"/>
<path d="M3.62595 35.3695H19.9203L20.7709 36.2007L22.6957 38.0818L22.7405 38.1255L20.7709 40.0504L15.8691 44.8407C14.9067 44.5345 13.989 44.1407 13.0937 43.7252L18.846 38.1037H14.8171L10.5421 42.2815C9.75872 41.7784 9.0201 41.2316 8.30387 40.641L10.9002 38.1037H5.68513C4.92412 37.2287 4.23027 36.3319 3.62595 35.3695Z" fill="#0D9677"/>
<path d="M18.3983 45.5188L29.9253 34.2539H31.1339H33.8422H33.9093V36.9662V43.7252C33.014 44.1626 32.074 44.5345 31.1339 44.8407V36.9006L28.2913 39.6786V45.5844C27.3737 45.7813 26.456 45.8906 25.5159 45.9781V42.3909L21.8228 46C20.6589 45.9344 19.5174 45.7594 18.3983 45.5188Z" fill="#0D9677"/>
<path d="M36.1923 42.4784V26.5544L37.0429 25.7233L38.9677 23.8421L39.0125 23.7984L40.9822 25.7233L45.8839 30.5136C45.5705 31.4541 45.1677 32.3509 44.7424 33.2259L38.9901 27.6044V31.5416L43.2652 35.7194C42.7504 36.485 42.1908 37.2068 41.5865 37.9068L38.9901 35.3695V40.466C38.0948 41.1878 37.1771 41.8659 36.1923 42.4784Z" fill="#0D9677"/>
<path d="M46.5778 28.02L35.0508 16.7551V15.5739V12.9272V12.8616H37.8263H44.7424C45.1901 13.7366 45.5706 14.6553 45.8839 15.5739H37.7591L40.6017 18.3519H46.6449C46.8464 19.2487 46.9583 20.1455 47.0478 21.0642H43.3771L47.0702 24.6733C47.003 25.8107 46.824 26.9263 46.5778 28.02Z" fill="#0D9677"/>
</g>
<defs>
<clipPath id="clip0_5931_12517">
<rect width="177" height="46" fill="white"/>
</clipPath>
</defs>
</svg>
