<svg width="390" height="844" viewBox="0 0 390 844" fill="none" xmlns="http://www.w3.org/2000/svg">
<rect width="390" height="844" fill="#0D9677"/>
<path d="M221.98 75.8131H93.0316L86.3008 69.1816L71.0679 54.1736L70.7136 53.8245L86.3008 38.4674L125.091 0.249176C132.708 2.69235 139.97 5.83358 147.055 9.14932L101.534 53.9991H133.416L167.248 20.6671C173.447 24.6809 179.292 29.0438 184.96 33.7556L164.414 53.9991H205.684C211.529 60.9796 217.02 68.1346 221.98 75.8131Z" fill="#139A7C"/>
<path d="M104.899 -5.16072L13.6789 84.7133H4.11408H-17.3182H-17.8496V63.0737V9.14931C-10.7645 5.65906 -3.32524 2.69234 4.11408 0.249167V63.5972L26.6092 41.4341V-5.68426C33.8713 -7.25487 41.3107 -8.30195 48.5729 -8.82549V19.7946L77.7987 -9C87.0093 -8.30195 96.0428 -7.08036 104.899 -5.16072Z" fill="#139A7C"/>
<path d="M-93.3055 273.187H35.6426L42.3734 279.818L57.6063 294.826L57.9605 295.175L42.3734 310.533L3.58268 348.751C-4.03377 346.308 -11.296 343.166 -18.381 339.851L27.1405 295.001H-4.74228L-38.5734 328.333C-44.7729 324.319 -50.618 319.956 -56.2861 315.244L-35.7394 295.001H-77.0099C-83.0322 288.02 -88.5231 280.865 -93.3055 273.187Z" fill="#139A7C"/>
<path d="M23.5981 354.161L114.818 264.287H124.383H145.815H146.347V285.926V339.851C139.262 343.341 131.822 346.308 124.383 348.751V285.403L101.888 307.566V354.684C94.6258 356.255 87.3636 357.127 79.9243 357.825V329.205L50.6984 358C41.4878 357.476 32.4544 356.08 23.5981 354.161Z" fill="#139A7C"/>
<path d="M164.414 329.903V202.858L171.144 196.227L186.377 181.219L186.731 180.87L202.319 196.227L241.109 234.445C238.63 241.949 235.441 249.104 232.076 256.085L186.554 211.235V242.647L220.386 275.979C216.312 282.087 211.883 287.846 207.101 293.43L186.554 273.187V313.848C179.469 319.607 172.207 325.017 164.414 329.903Z" fill="#139A7C"/>
<path d="M246.6 214.551L155.38 124.677V115.253V94.1369V93.6134H177.344H232.076C235.619 100.594 238.63 107.923 241.109 115.253H176.813L199.308 137.416H247.132C248.726 144.571 249.612 151.726 250.32 159.056H221.271L250.497 187.85C249.966 196.925 248.549 205.825 246.6 214.551Z" fill="#139A7C"/>
<path d="M501.98 579.813H373.032L366.301 573.182L351.068 558.174L350.714 557.825L366.301 542.467L405.091 504.249C412.708 506.692 419.97 509.834 427.055 513.149L381.534 557.999H413.416L447.248 524.667C453.447 528.681 459.292 533.044 464.96 537.756L444.414 557.999H485.684C491.529 564.98 497.02 572.135 501.98 579.813Z" fill="#139A7C"/>
<path d="M384.899 498.839L293.679 588.713H284.114H262.682H262.15V567.074V513.149C269.235 509.659 276.675 506.692 284.114 504.249V567.597L306.609 545.434V498.316C313.871 496.745 321.311 495.698 328.573 495.175V523.795L357.799 495C367.009 495.698 376.043 496.92 384.899 498.839Z" fill="#139A7C"/>
<path d="M244.083 523.271V650.316L237.353 656.948L222.12 671.956L221.765 672.305L206.178 656.948L167.565 618.729C170.045 611.225 173.233 604.07 176.598 597.09L222.12 641.94V610.527L188.289 577.195C192.362 571.087 196.791 565.329 201.573 559.744L222.12 579.988V539.326C229.028 533.393 236.29 527.983 244.083 523.271Z" fill="#139A7C"/>
<path d="M161.897 638.449L253.117 728.323V737.747V758.863V759.387H231.153H176.421C172.879 752.406 169.867 745.077 167.388 737.747H231.685L209.19 715.584H161.365C159.771 708.429 158.886 701.274 158.177 693.944H187.226L158 665.15C158.709 656.075 159.948 647.175 161.897 638.449Z" fill="#139A7C"/>
<path d="M186.694 777.187H315.643L322.373 783.818L337.606 798.826L337.961 799.175L322.373 814.533L283.583 852.751C275.966 850.308 268.704 847.166 261.619 843.851L307.141 799.001H275.258L241.427 832.333C235.227 828.319 229.382 823.956 223.714 819.244L244.261 799.001H202.99C196.968 792.02 191.477 784.865 186.694 777.187Z" fill="#139A7C"/>
<path d="M303.598 858.161L394.818 768.287H404.383H425.815H426.347V789.926V843.851C419.262 847.341 411.822 850.308 404.383 852.751V789.403L381.888 811.566V858.684C374.626 860.255 367.364 861.127 359.924 861.825V833.205L330.698 862C321.488 861.476 312.454 860.08 303.598 858.161Z" fill="#139A7C"/>
</svg>
