<svg width="38" height="38" viewBox="0 0 38 38" fill="none" xmlns="http://www.w3.org/2000/svg">
<rect x="0.333374" y="0.5" width="37" height="37" rx="18.5" fill="#0D9677"/>
<path d="M25.5033 9H23.6033C21.4233 9 20.2733 10.15 20.2733 12.33V14.23C20.2733 16.41 21.4233 17.56 23.6033 17.56H25.5033C27.6833 17.56 28.8333 16.41 28.8333 14.23V12.33C28.8333 10.15 27.6833 9 25.5033 9Z" fill="#FDFCFC"/>
<path d="M14.0734 20.4301H12.1734C9.98337 20.4301 8.83337 21.5801 8.83337 23.7601V25.6601C8.83337 27.8501 9.98337 29.0001 12.1634 29.0001H14.0634C16.2434 29.0001 17.3934 27.8501 17.3934 25.6701V23.7701C17.4034 21.5801 16.2534 20.4301 14.0734 20.4301Z" fill="#FDFCFC"/>
<path d="M13.1234 17.58C15.4927 17.58 17.4134 15.6593 17.4134 13.29C17.4134 10.9207 15.4927 9 13.1234 9C10.7541 9 8.83337 10.9207 8.83337 13.29C8.83337 15.6593 10.7541 17.58 13.1234 17.58Z" fill="#FDFCFC"/>
<path d="M24.5434 29C26.9127 29 28.8334 27.0793 28.8334 24.71C28.8334 22.3407 26.9127 20.42 24.5434 20.42C22.1741 20.42 20.2534 22.3407 20.2534 24.71C20.2534 27.0793 22.1741 29 24.5434 29Z" fill="#FDFCFC"/>
</svg>
