<svg width="25" height="24" viewBox="0 0 25 24" fill="none" xmlns="http://www.w3.org/2000/svg">
<path d="M17.6833 10H19.6833C21.6833 10 22.6833 9 22.6833 7V5C22.6833 3 21.6833 2 19.6833 2H17.6833C15.6833 2 14.6833 3 14.6833 5V7C14.6833 9 15.6833 10 17.6833 10Z" stroke="#828282" stroke-width="1.5" stroke-miterlimit="10" stroke-linecap="round" stroke-linejoin="round"/>
<path d="M5.68335 22H7.68335C9.68335 22 10.6833 21 10.6833 19V17C10.6833 15 9.68335 14 7.68335 14H5.68335C3.68335 14 2.68335 15 2.68335 17V19C2.68335 21 3.68335 22 5.68335 22Z" stroke="#828282" stroke-width="1.5" stroke-miterlimit="10" stroke-linecap="round" stroke-linejoin="round"/>
<path d="M6.68335 10C8.89249 10 10.6833 8.20914 10.6833 6C10.6833 3.79086 8.89249 2 6.68335 2C4.47421 2 2.68335 3.79086 2.68335 6C2.68335 8.20914 4.47421 10 6.68335 10Z" stroke="#828282" stroke-width="1.5" stroke-miterlimit="10" stroke-linecap="round" stroke-linejoin="round"/>
<path d="M18.6833 22C20.8925 22 22.6833 20.2091 22.6833 18C22.6833 15.7909 20.8925 14 18.6833 14C16.4742 14 14.6833 15.7909 14.6833 18C14.6833 20.2091 16.4742 22 18.6833 22Z" stroke="#828282" stroke-width="1.5" stroke-miterlimit="10" stroke-linecap="round" stroke-linejoin="round"/>
</svg>
