<svg width="56" height="56" viewBox="0 0 56 56" fill="none" xmlns="http://www.w3.org/2000/svg">
<path d="M16 37.6667V40.6C16 46.8333 13.5 49.3333 7.23329 49.3333H-8.60004C-13.4334 49.3333 -17.3334 45.4333 -17.3334 40.6V24.7667C-17.3334 18.5 -14.8334 16 -8.60004 16H-5.66671V27.6667C-5.66671 33.2 -1.20004 37.6667 4.33329 37.6667H16Z" fill="#CEEAE7"/>
<path d="M32.6667 21V23.9C32.6667 28.7333 28.7334 32.6667 23.9 32.6667H8.06671C1.83337 32.6667 -0.666626 30.1667 -0.666626 23.9V8.06666C-0.666626 3.23333 3.23337 -0.666672 8.06671 -0.666672H11V11C11 16.5333 15.4667 21 21 21H32.6667Z" fill="#CEEAE7"/>
<path d="M49.3333 -8.6V7.23334C49.3333 13.5 46.8333 16 40.5667 16H24.7333C18.5 16 16 13.5 16 7.23334V-8.6C16 -14.8333 18.5 -17.3333 24.7333 -17.3333H40.5667C46.8333 -17.3333 49.3333 -14.8333 49.3333 -8.6Z" fill="#CEEAE7"/>
<path d="M37 46.2083V47.455C37 50.1042 35.9375 51.1667 33.2742 51.1667H26.545C24.4909 51.1667 22.8334 49.5092 22.8334 47.455V40.7258C22.8334 38.0625 23.8959 37 26.545 37H27.7917V41.9583C27.7917 44.31 29.69 46.2083 32.0417 46.2083H37Z" fill="#0D9677"/>
<path d="M44.0833 39.125V40.3575C44.0833 42.4117 42.4116 44.0833 40.3575 44.0833H33.6283C30.9791 44.0833 29.9166 43.0208 29.9166 40.3575V33.6283C29.9166 31.5742 31.5741 29.9167 33.6283 29.9167H34.875V34.875C34.875 37.2267 36.7733 39.125 39.125 39.125H44.0833Z" fill="#0D9677"/>
<path d="M51.1667 26.545V33.2742C51.1667 35.9375 50.1042 37 47.4408 37H40.7117C38.0625 37 37 35.9375 37 33.2742V26.545C37 23.8958 38.0625 22.8333 40.7117 22.8333H47.4408C50.1042 22.8333 51.1667 23.8958 51.1667 26.545Z" fill="#0D9677"/>
</svg>
