<svg width="74" height="80" viewBox="0 0 74 80" fill="none" xmlns="http://www.w3.org/2000/svg">
<path d="M58.6667 7.33334H29.3333C16.5 7.33334 11 14.6667 11 25.6667V62.3333C11 73.3333 16.5 80.6667 29.3333 80.6667H58.6667C71.5 80.6667 77 73.3333 77 62.3333V25.6667C77 14.6667 71.5 7.33334 58.6667 7.33334ZM29.3333 44.9167H44C45.5033 44.9167 46.75 46.1633 46.75 47.6667C46.75 49.17 45.5033 50.4167 44 50.4167H29.3333C27.83 50.4167 26.5833 49.17 26.5833 47.6667C26.5833 46.1633 27.83 44.9167 29.3333 44.9167ZM58.6667 65.0833H29.3333C27.83 65.0833 26.5833 63.8367 26.5833 62.3333C26.5833 60.83 27.83 59.5833 29.3333 59.5833H58.6667C60.17 59.5833 61.4167 60.83 61.4167 62.3333C61.4167 63.8367 60.17 65.0833 58.6667 65.0833ZM67.8333 33.9167H60.5C54.9267 33.9167 50.4167 29.4067 50.4167 23.8333V16.5C50.4167 14.9967 51.6633 13.75 53.1667 13.75C54.67 13.75 55.9167 14.9967 55.9167 16.5V23.8333C55.9167 26.3633 57.97 28.4167 60.5 28.4167H67.8333C69.3367 28.4167 70.5833 29.6633 70.5833 31.1667C70.5833 32.67 69.3367 33.9167 67.8333 33.9167Z" fill="#C3E1D3"/>
</svg>
