<svg width="38" height="38" viewBox="0 0 38 38" fill="none" xmlns="http://www.w3.org/2000/svg">
<rect x="0.5" y="0.5" width="37" height="37" rx="18.5" fill="#0D9677"/>
<path d="M28.67 13.95C28.03 11.78 26.22 9.97003 24.05 9.33003C22.4 8.85003 21.26 8.89003 20.47 9.48003C19.52 10.19 19.41 11.47 19.41 12.38V14.87C19.41 17.33 20.53 18.58 22.73 18.58H25.6C26.5 18.58 27.79 18.47 28.5 17.52C29.11 16.74 29.16 15.6 28.67 13.95Z" fill="#FDFCFC"/>
<path d="M25.91 20.36C25.65 20.06 25.27 19.89 24.88 19.89H21.3C19.54 19.89 18.11 18.46 18.11 16.7V13.12C18.11 12.73 17.94 12.35 17.64 12.09C17.35 11.83 16.95 11.71 16.57 11.76C14.22 12.06 12.06 13.35 10.65 15.29C9.23002 17.24 8.71002 19.62 9.16002 22C9.81002 25.44 12.56 28.19 16.01 28.84C16.56 28.95 17.11 29 17.66 29C19.47 29 21.22 28.44 22.71 27.35C24.65 25.94 25.94 23.78 26.24 21.43C26.29 21.04 26.17 20.65 25.91 20.36Z" fill="#FDFCFC"/>
</svg>
