<svg width="56" height="56" viewBox="0 0 56 56" fill="none" xmlns="http://www.w3.org/2000/svg">
<path d="M39.8999 -1.8666C38.4666 -9.09994 33.1 -12.2666 25.6333 -12.2666H-3.63338C-12.4334 -12.2666 -18.3 -7.8666 -18.3 2.40006V19.5667C-18.3 26.9667 -15.2667 31.3001 -10.2667 33.1667C-9.53338 33.4334 -8.73338 33.6667 -7.90005 33.8001C-6.56672 34.1001 -5.13338 34.2334 -3.63338 34.2334H25.6666C34.4666 34.2334 40.3333 29.8334 40.3333 19.5667V2.40006C40.3333 0.833398 40.1999 -0.566603 39.8999 -1.8666ZM-5.56672 16.0001C-5.56672 17.3667 -6.70005 18.5001 -8.06672 18.5001C-9.43338 18.5001 -10.5667 17.3667 -10.5667 16.0001V6.00006C-10.5667 4.6334 -9.43338 3.50006 -8.06672 3.50006C-6.70005 3.50006 -5.56672 4.6334 -5.56672 6.00006V16.0001ZM11 19.8001C6.13328 19.8001 2.19995 15.8667 2.19995 11.0001C2.19995 6.1334 6.13328 2.20006 11 2.20006C15.8666 2.20006 19.7999 6.1334 19.7999 11.0001C19.7999 15.8667 15.8666 19.8001 11 19.8001ZM32.5333 16.0001C32.5333 17.3667 31.3999 18.5001 30.0333 18.5001C28.6666 18.5001 27.5333 17.3667 27.5333 16.0001V6.00006C27.5333 4.6334 28.6666 3.50006 30.0333 3.50006C31.3999 3.50006 32.5333 4.6334 32.5333 6.00006V16.0001Z" fill="#CEEAE7"/>
<path d="M50.3334 12.4002V29.5668C50.3334 39.8335 44.4667 44.2668 35.6334 44.2668H6.36675C3.86675 44.2668 1.63342 43.9002 -0.299916 43.1668C-1.86658 42.6002 -3.23325 41.7668 -4.33325 40.7001C-4.93325 40.1335 -4.46658 39.2335 -3.63325 39.2335H25.6334C37.9667 39.2335 45.3001 31.9002 45.3001 19.6001V2.40015C45.3001 1.60015 46.2001 1.10015 46.7667 1.70015C49.0334 4.10015 50.3334 7.60015 50.3334 12.4002Z" fill="#CEEAE7"/>
<path d="M47.1575 29.4067C46.5483 26.3325 44.2675 24.9867 41.0942 24.9867H28.6558C24.9158 24.9867 22.4225 26.8567 22.4225 31.22V38.5159C22.4225 41.6609 23.7117 43.5025 25.8367 44.2959C26.1483 44.4092 26.4883 44.5084 26.8425 44.565C27.4092 44.6925 28.0183 44.7492 28.6558 44.7492H41.1083C44.8483 44.7492 47.3417 42.8792 47.3417 38.5159V31.22C47.3417 30.5542 47.285 29.9592 47.1575 29.4067ZM27.8342 37C27.8342 37.5809 27.3525 38.0625 26.7717 38.0625C26.1908 38.0625 25.7092 37.5809 25.7092 37V32.75C25.7092 32.1692 26.1908 31.6875 26.7717 31.6875C27.3525 31.6875 27.8342 32.1692 27.8342 32.75V37ZM34.875 38.615C32.8067 38.615 31.135 36.9434 31.135 34.875C31.135 32.8067 32.8067 31.135 34.875 31.135C36.9433 31.135 38.615 32.8067 38.615 34.875C38.615 36.9434 36.9433 38.615 34.875 38.615ZM44.0266 37C44.0266 37.5809 43.545 38.0625 42.9641 38.0625C42.3833 38.0625 41.9017 37.5809 41.9017 37V32.75C41.9017 32.1692 42.3833 31.6875 42.9641 31.6875C43.545 31.6875 44.0266 32.1692 44.0266 32.75V37Z" fill="#0D9677"/>
<path d="M51.5917 35.4701V42.7659C51.5917 47.1292 49.0984 49.0134 45.3442 49.0134H32.9059C31.8434 49.0134 30.8942 48.8576 30.0725 48.5459C29.4067 48.3051 28.8259 47.9509 28.3584 47.4976C28.1034 47.2567 28.3017 46.8742 28.6559 46.8742H41.0942C46.3359 46.8742 49.4525 43.7576 49.4525 38.5301V31.2201C49.4525 30.8801 49.835 30.6676 50.0759 30.9226C51.0392 31.9426 51.5917 33.4301 51.5917 35.4701Z" fill="#0D9677"/>
</svg>
