<svg width="38" height="37" viewBox="0 0 38 37" fill="none" xmlns="http://www.w3.org/2000/svg">
<rect x="0.166748" width="37" height="37" rx="18.5" fill="#0D9677"/>
<path d="M27.6667 28.5H9.66675C9.25675 28.5 8.91675 28.16 8.91675 27.75C8.91675 27.34 9.25675 27 9.66675 27H27.6667C28.0767 27 28.4167 27.34 28.4167 27.75C28.4167 28.16 28.0767 28.5 27.6667 28.5Z" fill="#FDFCFC"/>
<path d="M25.6868 9.98C23.7468 8.04 21.8468 7.99 19.8568 9.98L18.6468 11.19C18.5468 11.29 18.5068 11.45 18.5468 11.59C19.3068 14.24 21.4268 16.36 24.0768 17.12C24.1168 17.13 24.1568 17.14 24.1968 17.14C24.3068 17.14 24.4068 17.1 24.4868 17.02L25.6868 15.81C26.6768 14.83 27.1568 13.88 27.1568 12.92C27.1668 11.93 26.6868 10.97 25.6868 9.98Z" fill="#FDFCFC"/>
<path d="M22.2768 18.03C21.9868 17.89 21.7068 17.75 21.4368 17.59C21.2168 17.46 21.0068 17.32 20.7968 17.17C20.6268 17.06 20.4268 16.9 20.2368 16.74C20.2168 16.73 20.1468 16.67 20.0668 16.59C19.7368 16.31 19.3668 15.95 19.0368 15.55C19.0068 15.53 18.9568 15.46 18.8868 15.37C18.7868 15.25 18.6168 15.05 18.4668 14.82C18.3468 14.67 18.2068 14.45 18.0768 14.23C17.9168 13.96 17.7768 13.69 17.6368 13.41C17.6156 13.3646 17.5951 13.3194 17.5753 13.2745C17.4277 12.9412 16.9931 12.8438 16.7353 13.1015L11.0068 18.83C10.8768 18.96 10.7568 19.21 10.7268 19.38L10.1868 23.21C10.0868 23.89 10.2768 24.53 10.6968 24.96C11.0568 25.31 11.5568 25.5 12.0968 25.5C12.2168 25.5 12.3368 25.49 12.4568 25.47L16.2968 24.93C16.4768 24.9 16.7268 24.78 16.8468 24.65L22.5681 18.9287C22.8277 18.6691 22.7298 18.2237 22.3922 18.0796C22.3542 18.0634 22.3157 18.0469 22.2768 18.03Z" fill="#FDFCFC"/>
</svg>
