<svg width="56" height="56" viewBox="0 0 56 56" fill="none" xmlns="http://www.w3.org/2000/svg">
<path d="M43 -0.866829C43 0.933172 42.0333 2.56651 40.5 3.39984L34.7 6.53317L29.7667 9.1665L19.5333 14.6998C18.4333 15.2998 17.2333 15.5998 16 15.5998C14.7667 15.5998 13.5667 15.2998 12.4667 14.6998L-8.5 3.39984C-10.0333 2.56651 -11 0.933172 -11 -0.866829C-11 -2.66683 -10.0333 -4.30016 -8.5 -5.1335L-1.93333 -8.66683L3.3 -11.5002L12.4667 -16.4335C14.6667 -17.6335 17.3333 -17.6335 19.5333 -16.4335L40.5 -5.1335C42.0333 -4.30016 43 -2.66683 43 -0.866829Z" fill="#CEEAE7"/>
<path d="M8.99986 18.6333L-10.5001 8.89992C-12.0001 8.13325 -13.7335 8.23325 -15.1668 9.09992C-16.6001 9.96659 -17.4335 11.4999 -17.4335 13.1666V31.5999C-17.4335 34.7999 -15.6668 37.6666 -12.8001 39.0999L6.69986 48.8333C7.36653 49.1666 8.09986 49.3333 8.8332 49.3333C9.69986 49.3333 10.5665 49.0999 11.3332 48.5999C12.7665 47.7333 13.5999 46.1999 13.5999 44.5333V26.0999C13.6332 22.9333 11.8665 20.0666 8.99986 18.6333Z" fill="#CEEAE7"/>
<path d="M49.4331 13.1664V31.5997C49.4331 34.7664 47.6665 37.6331 44.7998 39.0664L25.2998 48.8331C24.6331 49.1664 23.8998 49.3331 23.1665 49.3331C22.2998 49.3331 21.4331 49.0997 20.6331 48.5997C19.2331 47.7331 18.3665 46.1997 18.3665 44.5331V26.1331C18.3665 22.9331 20.1331 20.0664 22.9998 18.6331L30.1665 15.0664L35.1665 12.5664L42.4998 8.89973C43.9998 8.13306 45.7331 8.19973 47.1665 9.09973C48.5665 9.96639 49.4331 11.4997 49.4331 13.1664Z" fill="#CEEAE7"/>
<path d="M34.6999 6.53333L29.7665 9.16667L-1.93347 -8.66667L3.29986 -11.5L33.8999 5.76667C34.2332 5.96667 34.4999 6.23333 34.6999 6.53333Z" fill="#CEEAE7"/>
<path d="M35.1667 12.5665V20.1332C35.1667 21.4999 34.0334 22.6332 32.6667 22.6332C31.3001 22.6332 30.1667 21.4999 30.1667 20.1332V15.0665L35.1667 12.5665Z" fill="#CEEAE7"/>
<path d="M48.475 29.8316C48.475 30.5966 48.0642 31.2908 47.4125 31.645L44.9475 32.9766L42.8509 34.0958L38.5017 36.4475C38.0342 36.7025 37.5242 36.83 37 36.83C36.4759 36.83 35.9659 36.7025 35.4984 36.4475L26.5875 31.645C25.9359 31.2908 25.525 30.5966 25.525 29.8316C25.525 29.0666 25.9359 28.3725 26.5875 28.0183L29.3784 26.5166L31.6025 25.3125L35.4984 23.2158C36.4334 22.7058 37.5667 22.7058 38.5017 23.2158L47.4125 28.0183C48.0642 28.3725 48.475 29.0666 48.475 29.8316Z" fill="#0D9677"/>
<path d="M34.0249 38.119L25.7374 33.9823C25.0999 33.6565 24.3633 33.699 23.7541 34.0673C23.1449 34.4357 22.7908 35.0873 22.7908 35.7957V43.6298C22.7908 44.9898 23.5416 46.2082 24.7599 46.8173L33.0474 50.954C33.3308 51.0957 33.6424 51.1665 33.9541 51.1665C34.3224 51.1665 34.6908 51.0673 35.0166 50.8548C35.6258 50.4865 35.9799 49.8348 35.9799 49.1265V41.2923C35.9941 39.9465 35.2433 38.7282 34.0249 38.119Z" fill="#0D9677"/>
<path d="M51.2091 35.7957V43.6298C51.2091 44.9757 50.4582 46.194 49.2399 46.8032L40.9524 50.954C40.6691 51.0957 40.3574 51.1665 40.0457 51.1665C39.6774 51.1665 39.3091 51.0673 38.9691 50.8548C38.3741 50.4865 38.0057 49.8348 38.0057 49.1265V41.3065C38.0057 39.9465 38.7566 38.7282 39.9749 38.119L43.0207 36.6032L45.1457 35.5407L48.2624 33.9823C48.8999 33.6565 49.6366 33.6848 50.2457 34.0673C50.8407 34.4357 51.2091 35.0873 51.2091 35.7957Z" fill="#0D9677"/>
<path d="M44.9475 32.9767L42.8508 34.0958L29.3783 26.5167L31.6025 25.3125L44.6075 32.6508C44.7491 32.7358 44.8625 32.8492 44.9475 32.9767Z" fill="#0D9677"/>
<path d="M45.1459 35.5408V38.7566C45.1459 39.3374 44.6642 39.8191 44.0834 39.8191C43.5025 39.8191 43.0209 39.3374 43.0209 38.7566V36.6033L45.1459 35.5408Z" fill="#0D9677"/>
</svg>
