<svg width="56" height="56" viewBox="0 0 56 56" fill="none" xmlns="http://www.w3.org/2000/svg">
<path d="M41.0333 -4.50001L21.2333 -15.9333C17.9999 -17.8 13.9999 -17.8 10.7333 -15.9333L-9.03339 -4.50001C-12.2667 -2.63334 -14.2667 0.833324 -14.2667 4.59999V27.4C-14.2667 31.1333 -12.2667 34.6 -9.03339 36.5L10.7666 47.9333C13.9999 49.8 17.9999 49.8 21.2666 47.9333L41.0666 36.5C44.2999 34.6333 46.2999 31.1667 46.2999 27.4V4.59999C46.2666 0.833324 44.2666 -2.60001 41.0333 -4.50001ZM15.9999 0.466658C20.2999 0.466658 23.7666 3.93332 23.7666 8.23332C23.7666 12.5333 20.2999 16 15.9999 16C11.6999 16 8.23328 12.5333 8.23328 8.23332C8.23328 3.96666 11.6999 0.466658 15.9999 0.466658ZM24.9333 31.5333H7.06661C4.36661 31.5333 2.79994 28.5333 4.29994 26.3C6.56661 22.9333 10.9666 20.6667 15.9999 20.6667C21.0333 20.6667 25.4333 22.9333 27.6999 26.3C29.1999 28.5 27.5999 31.5333 24.9333 31.5333Z" fill="#CEEAE7"/>
<path d="M47.6392 28.2875L39.2242 23.4283C37.8501 22.635 36.1501 22.635 34.7617 23.4283L26.3609 28.2875C24.9867 29.0808 24.1367 30.5542 24.1367 32.155V41.845C24.1367 43.4317 24.9867 44.905 26.3609 45.7125L34.7759 50.5717C36.1501 51.365 37.8501 51.365 39.2384 50.5717L47.6534 45.7125C49.0276 44.9192 49.8776 43.4458 49.8776 41.845V32.155C49.8634 30.5542 49.0134 29.095 47.6392 28.2875ZM37.0001 30.3983C38.8276 30.3983 40.3009 31.8717 40.3009 33.6992C40.3009 35.5267 38.8276 37 37.0001 37C35.1726 37 33.6992 35.5267 33.6992 33.6992C33.6992 31.8858 35.1726 30.3983 37.0001 30.3983ZM40.7967 43.6017H33.2034C32.0559 43.6017 31.3901 42.3267 32.0276 41.3775C32.9909 39.9467 34.8609 38.9833 37.0001 38.9833C39.1392 38.9833 41.0092 39.9467 41.9726 41.3775C42.6101 42.3125 41.9301 43.6017 40.7967 43.6017Z" fill="#0D9677"/>
</svg>
