<svg width="56" height="56" viewBox="0 0 56 56" fill="none" xmlns="http://www.w3.org/2000/svg">
<path d="M38.7666 -7.23333C37.9999 -7.86667 37.1333 -8.36667 36.1999 -8.73334C35.2333 -9.1 34.2666 -8.33333 34.0666 -7.33333C32.9333 -1.63333 27.8999 2.66667 21.8333 2.66667H10.1666C6.83325 2.66667 3.69992 1.36667 1.33325 -1C-0.400081 -2.73333 -1.60008 -4.93333 -2.06675 -7.3C-2.26675 -8.3 -3.26675 -9.1 -4.23342 -8.7C-8.10008 -7.13333 -10.6667 -3.6 -10.6667 3.5V36C-10.6667 46 -4.70008 49.3333 2.66659 49.3333H29.3333C36.6999 49.3333 42.6666 46 42.6666 36V3.5C42.6666 -1.93333 41.1666 -5.26667 38.7666 -7.23333ZM2.66659 16.8333H15.9999C17.3666 16.8333 18.4999 17.9667 18.4999 19.3333C18.4999 20.7 17.3666 21.8333 15.9999 21.8333H2.66659C1.29992 21.8333 0.166586 20.7 0.166586 19.3333C0.166586 17.9667 1.29992 16.8333 2.66659 16.8333ZM29.3333 35.1667H2.66659C1.29992 35.1667 0.166586 34.0333 0.166586 32.6667C0.166586 31.3 1.29992 30.1667 2.66659 30.1667H29.3333C30.6999 30.1667 31.8333 31.3 31.8333 32.6667C31.8333 34.0333 30.6999 35.1667 29.3333 35.1667Z" fill="#CEEAE7"/>
<path d="M42.6667 26.0208C42.6667 27.7775 41.2359 29.2083 39.4792 29.2083H34.5209C33.6425 29.2083 32.8492 28.8541 32.2684 28.2733C31.6875 27.6925 31.3334 26.8991 31.3334 26.0208C31.3334 24.2641 32.7642 22.8333 34.5209 22.8333H39.4792C40.3575 22.8333 41.1509 23.1875 41.7317 23.7683C42.3125 24.3491 42.6667 25.1425 42.6667 26.0208Z" fill="#0D9677"/>
<path d="M46.6758 27.1258C46.35 26.8566 45.9816 26.6441 45.585 26.4883C45.1741 26.3324 44.7633 26.6583 44.6783 27.0833C44.1966 29.5058 42.0575 31.3333 39.4791 31.3333H34.5208C33.1041 31.3333 31.7725 30.7808 30.7666 29.7749C30.03 29.0383 29.52 28.1033 29.3216 27.0974C29.2366 26.6724 28.8116 26.3324 28.4008 26.5024C26.7575 27.1683 25.6666 28.6699 25.6666 31.6874V45.4999C25.6666 49.7499 28.2025 51.1666 31.3333 51.1666H42.6666C45.7975 51.1666 48.3333 49.7499 48.3333 45.4999V31.6874C48.3333 29.3783 47.6958 27.9616 46.6758 27.1258ZM31.3333 37.3541H37C37.5808 37.3541 38.0625 37.8358 38.0625 38.4166C38.0625 38.9974 37.5808 39.4791 37 39.4791H31.3333C30.7525 39.4791 30.2708 38.9974 30.2708 38.4166C30.2708 37.8358 30.7525 37.3541 31.3333 37.3541ZM42.6666 45.1458H31.3333C30.7525 45.1458 30.2708 44.6641 30.2708 44.0833C30.2708 43.5024 30.7525 43.0208 31.3333 43.0208H42.6666C43.2475 43.0208 43.7291 43.5024 43.7291 44.0833C43.7291 44.6641 43.2475 45.1458 42.6666 45.1458Z" fill="#0D9677"/>
</svg>
