<svg width="112" height="116" viewBox="0 0 112 116" fill="none" xmlns="http://www.w3.org/2000/svg">
<path d="M112 34C112 79.2873 75.2873 116 30 116C-15.2873 116 -52 79.2873 -52 34C-52 -11.2873 -15.2873 -48 30 -48C75.2873 -48 112 -11.2873 112 34ZM-30.439 34C-30.439 67.3796 -3.37955 94.439 30 94.439C63.3796 94.439 90.439 67.3796 90.439 34C90.439 0.620445 63.3796 -26.439 30 -26.439C-3.37955 -26.439 -30.439 0.620445 -30.439 34Z" fill="#C3E1D3"/>
<path d="M69 34C69 55.5391 51.5391 73 30 73C8.4609 73 -9 55.5391 -9 34C-9 12.4609 8.4609 -5 30 -5C51.5391 -5 69 12.4609 69 34ZM6.49125 34C6.49125 46.9835 17.0165 57.5088 30 57.5088C42.9835 57.5088 53.5088 46.9835 53.5088 34C53.5088 21.0165 42.9835 10.4912 30 10.4912C17.0165 10.4912 6.49125 21.0165 6.49125 34Z" fill="#C3E1D3"/>
</svg>
