<svg width="67" height="71" viewBox="0 0 67 71" fill="none" xmlns="http://www.w3.org/2000/svg">
<path d="M37 0.333344C16.76 0.333344 0.333313 16.76 0.333313 37C0.333313 57.24 16.76 73.6667 37 73.6667C57.24 73.6667 73.6666 57.24 73.6666 37C73.6666 16.76 57.24 0.333344 37 0.333344ZM56.03 51.4467C55.8833 51.7767 55.7 52.07 55.4433 52.3267L49.2466 58.5233C48.6966 59.0733 48 59.33 47.3033 59.33C46.6066 59.33 45.91 59.0733 45.36 58.5233C44.2966 57.46 44.2966 55.7 45.36 54.6367L46.8633 53.1333H26.3666C21.6 53.1333 17.75 49.2467 17.75 44.5167V38.0267C17.75 36.5233 18.9966 35.2767 20.5 35.2767C22.0033 35.2767 23.25 36.5233 23.25 38.0267V44.5167C23.25 46.24 24.6433 47.6333 26.3666 47.6333H46.8633L45.36 46.13C44.2966 45.0667 44.2966 43.3067 45.36 42.2433C46.4233 41.18 48.1833 41.18 49.2466 42.2433L55.4433 48.44C55.7 48.6967 55.8833 48.99 56.03 49.32C56.3233 50.0167 56.3233 50.7867 56.03 51.4467ZM56.25 35.9733C56.25 37.4767 55.0033 38.7233 53.5 38.7233C51.9966 38.7233 50.75 37.4767 50.75 35.9733V29.4833C50.75 27.76 49.3566 26.3667 47.6333 26.3667H27.1366L28.64 27.8333C29.7033 28.8967 29.7033 30.6567 28.64 31.72C28.09 32.27 27.3933 32.5267 26.6966 32.5267C26 32.5267 25.3033 32.27 24.7533 31.72L18.5566 25.5233C18.3 25.2667 18.1166 24.9733 17.97 24.6433C17.6766 23.9833 17.6766 23.2133 17.97 22.5533C18.1166 22.2233 18.3 21.8933 18.5566 21.6367L24.7533 15.44C25.8166 14.3767 27.5766 14.3767 28.64 15.44C29.7033 16.5033 29.7033 18.2633 28.64 19.3267L27.1366 20.83H47.6333C52.4 20.83 56.25 24.7167 56.25 29.4467V35.9733Z" fill="#E6E5E5"/>
</svg>
