<svg width="74" height="80" viewBox="0 0 74 80" fill="none" xmlns="http://www.w3.org/2000/svg">
<path d="M36.6667 56.8333C35.1634 56.8333 33.9167 58.08 33.9167 59.5833V65.0833C33.9167 66.5867 35.1634 67.8333 36.6667 67.8333C38.17 67.8333 39.4167 66.5867 39.4167 65.0833V59.5833C39.4167 58.08 38.17 56.8333 36.6667 56.8333Z" fill="#E6E5E5"/>
<path d="M80.6666 77.9167H77V36.5933C77 34.32 75.9733 32.1933 74.1766 30.8L48.51 10.8533C45.87 8.76333 42.13 8.76333 39.49 10.8533L13.8233 30.8C12.0266 32.1933 11 34.32 11 36.5567L10.8166 77.9167H7.33331C5.82998 77.9167 4.58331 79.1267 4.58331 80.6667C4.58331 82.17 5.82998 83.4167 7.33331 83.4167H80.6666C82.17 83.4167 83.4166 82.17 83.4166 80.6667C83.4166 79.1267 82.17 77.9167 80.6666 77.9167ZM38.5 24.75H49.5C51.0033 24.75 52.25 25.9967 52.25 27.5C52.25 29.0033 51.0033 30.25 49.5 30.25H38.5C36.9966 30.25 35.75 29.0033 35.75 27.5C35.75 25.9967 36.9966 24.75 38.5 24.75ZM62.3333 77.9167H25.6666V45.8333C25.6666 42.79 28.1233 40.3333 31.1666 40.3333H56.8333C59.8766 40.3333 62.3333 42.79 62.3333 45.8333V77.9167Z" fill="#E6E5E5"/>
</svg>
